<?xml version="1.0" standalone="no"?>
<!DOCTYPE svg PUBLIC "-//W3C//DTD SVG 20010904//EN"
 "http://www.w3.org/TR/2001/REC-SVG-20010904/DTD/svg10.dtd">
<svg version="1.0" xmlns="http://www.w3.org/2000/svg"
 width="1024.000000pt" height="1024.000000pt" viewBox="0 0 1024.000000 1024.000000"
 preserveAspectRatio="xMidYMid meet">
<metadata>
Created by potrace 1.13, written by Peter Selinger 2001-2015
</metadata>
<g transform="translate(0.000000,1024.000000) scale(0.100000,-0.100000)"
fill="#000000" stroke="none">
<path d="M0 5120 l0 -5120 5120 0 5120 0 0 5120 0 5120 -5120 0 -5120 0 0
-5120z m8858 33 l-3 -3668 -3765 0 -3765 0 -3 3668 -2 3667 3770 0 3770 0 -2
-3667z"/>
<path d="M1580 5155 l0 -3415 3510 0 3510 0 0 3415 0 3415 -3510 0 -3510 0 0
-3415z m1023 2963 c14 -24 53 -97 87 -163 35 -66 99 -187 143 -270 44 -82 142
-269 219 -415 183 -345 237 -447 292 -550 l46 -85 0 763 0 762 203 -2 202 -3
3 -1102 2 -1103 -218 0 -219 0 -51 98 c-63 119 -149 282 -502 946 l-275 517
-3 -781 -2 -780 -203 2 -202 3 -2 1090 c-2 600 -1 1096 2 1103 3 9 59 12 229
12 l225 0 24 -42z m2824 -283 c57 -176 149 -455 203 -620 236 -720 410 -1254
410 -1259 0 -3 -106 -6 -235 -6 l-234 0 -10 38 c-6 20 -35 120 -64 222 l-54
185 -376 3 -376 2 -41 -132 c-23 -73 -54 -173 -70 -223 l-28 -90 -226 -3
c-168 -2 -226 1 -226 9 0 7 163 504 362 1106 l362 1093 249 -2 249 -3 105
-320z m1920 315 c150 -21 288 -79 392 -168 154 -131 265 -376 302 -667 15
-114 6 -421 -15 -533 -71 -380 -229 -634 -469 -751 -156 -75 -150 -74 -729
-79 l-518 -3 0 1105 0 1106 479 0 c278 0 513 -4 558 -10z"/>
<path d="M4940 7227 c-68 -226 -126 -418 -128 -424 -3 -10 52 -13 253 -13 202
0 256 3 252 13 -2 6 -57 194 -122 417 -65 223 -121 408 -124 412 -4 5 -63
-178 -131 -405z"/>
<path d="M6740 7055 l0 -715 234 0 c266 0 325 11 408 74 152 116 237 388 225
721 -11 309 -86 495 -234 582 -77 45 -137 53 -395 53 l-238 0 0 -715z"/>
</g>
</svg>
